<svg xmlns="http://www.w3.org/2000/svg" viewBox="0 0 98.25 15.08"><defs><style>.cls-1{fill:#008c99;}</style></defs><title>logo</title><g id="Layer_2" data-name="Layer 2"><g id="Capa_1" data-name="Capa 1"><path class="cls-1" d="M2.35,4.71v8H3.52V5.89H7v6.85H8.18v-8ZM0,2.35V15.08H10.59V13.91H1.17V2.35Zm2.35,0V3.54h9.19V7.06H9.36v5.68h1.17V8.23h2.18V2.35ZM0,0V1.17H13.88V9.4H11.7v5.68h1.17V10.58h2.18V0Z"/><path class="cls-1" d="M59.59,8.3a.84.84,0,0,0-.69.32,1.36,1.36,0,0,0-.26.88,1.18,1.18,0,0,0,.26.79.81.81,0,0,0,.64.31.78.78,0,0,0,.39-.09.81.81,0,0,0,.28-.28v.3h.55V7.59h-.58v1a.69.69,0,0,0-.25-.24.7.7,0,0,0-.35-.09m.12,1.82a.4.4,0,0,1-.36-.18.86.86,0,0,1-.12-.48A.88.88,0,0,1,59.35,9a.4.4,0,0,1,.37-.19.43.43,0,0,1,.29.1.72.72,0,0,1,.2.57.79.79,0,0,1-.13.47.42.42,0,0,1-.37.18m2.46-1.36a.5.5,0,0,1,.34.12.48.48,0,0,1,.15.35h-1a.6.6,0,0,1,.15-.34.45.45,0,0,1,.34-.12m0-.47a1.05,1.05,0,0,0-.78.3,1.18,1.18,0,0,0-.3.87,1.06,1.06,0,0,0,.33.87,1.19,1.19,0,0,0,.77.27,1.06,1.06,0,0,0,.82-.32.71.71,0,0,0,.21-.39h-.58a.44.44,0,0,1-.43.25.58.58,0,0,1-.31-.08.52.52,0,0,1-.23-.46h1.59a2.73,2.73,0,0,0,0-.43,1.08,1.08,0,0,0-.17-.45.88.88,0,0,0-.38-.32,1.24,1.24,0,0,0-.51-.1m4.18.23a.43.43,0,0,1-.12.34.47.47,0,0,1-.33.11h-.56V8.1h.56a.5.5,0,0,1,.33.1.41.41,0,0,1,.12.33m.61,0a.89.89,0,0,0-.26-.71,1,1,0,0,0-.7-.23H64.74v3h.61V9.47H66a1.13,1.13,0,0,0,.74-.22A.91.91,0,0,0,67,8.52m1.32,1.61a.45.45,0,0,1-.39-.18.82.82,0,0,1-.13-.51.82.82,0,0,1,.13-.5.51.51,0,0,1,.77,0,.82.82,0,0,1,.13.5.83.83,0,0,1-.13.51.45.45,0,0,1-.38.18m1.12-.68a1.27,1.27,0,0,0-.28-.82,1.19,1.19,0,0,0-1.68,0,1.35,1.35,0,0,0,0,1.64,1.2,1.2,0,0,0,1.68,0,1.26,1.26,0,0,0,.28-.82m.94-1.86h-.57v3h.57Zm.49,3h.58V8.35h-.58Zm.35-3.07-.38.6h.41l.61-.6ZM72,8.78v1.34a.42.42,0,0,0,.1.3.73.73,0,0,0,.55.14h.27v-.43h-.11a.37.37,0,0,1-.21,0,.26.26,0,0,1,0-.17V8.78h.35V8.37h-.35V7.77H72v.61h-.3v.41Zm1.84-1.21h-.58v.53h.58Zm-.58,3h.58V8.35h-.58Zm3-1.4a.86.86,0,0,0-.31-.65,1.14,1.14,0,0,0-.67-.18,1,1,0,0,0-.76.31,1.28,1.28,0,0,0-.27.87,1.26,1.26,0,0,0,.25.81.93.93,0,0,0,.78.31.92.92,0,0,0,.8-.37,1,1,0,0,0,.19-.49h-.58a.54.54,0,0,1-.1.28.34.34,0,0,1-.28.11.38.38,0,0,1-.39-.27,1.1,1.1,0,0,1-.06-.38,1.21,1.21,0,0,1,.06-.4.39.39,0,0,1,.4-.29.34.34,0,0,1,.3.13.49.49,0,0,1,.08.22Zm1.58.55a.46.46,0,0,1-.16.39.59.59,0,0,1-.34.11.31.31,0,0,1-.2-.06A.26.26,0,0,1,77,9.91a.26.26,0,0,1,.13-.24.86.86,0,0,1,.26-.08l.13,0,.15,0,.11-.06Zm-.54-.45a1.39,1.39,0,0,0-.5.14.62.62,0,0,0-.31.58.6.6,0,0,0,.19.48.72.72,0,0,0,.49.17.83.83,0,0,0,.42-.11,1.17,1.17,0,0,0,.27-.22s0,.09,0,.13a.64.64,0,0,0,0,.12h.62v-.08a.2.2,0,0,1-.08-.07.32.32,0,0,1,0-.15c0-.1,0-.18,0-.25V9a.54.54,0,0,0-.28-.54,1.39,1.39,0,0,0-.64-.14.94.94,0,0,0-.78.29.83.83,0,0,0-.16.47H77a.42.42,0,0,1,.08-.2.37.37,0,0,1,.29-.1.6.6,0,0,1,.28.05.19.19,0,0,1,.09.19.17.17,0,0,1-.12.16.88.88,0,0,1-.23.05Zm1.43.61a.71.71,0,0,0,.25.55,1.45,1.45,0,0,0,1.51,0,.66.66,0,0,0,.24-.53.55.55,0,0,0-.17-.41A1.09,1.09,0,0,0,80,9.22a3.71,3.71,0,0,1-.59-.16.15.15,0,0,1-.08-.14.17.17,0,0,1,.08-.14.46.46,0,0,1,.27-.06.39.39,0,0,1,.32.12A.34.34,0,0,1,80,9h.57a.7.7,0,0,0-.3-.56,1.23,1.23,0,0,0-.67-.16,1,1,0,0,0-.67.22.68.68,0,0,0-.24.52.5.5,0,0,0,.15.39,1.24,1.24,0,0,0,.52.23,3.25,3.25,0,0,1,.6.17.17.17,0,0,1,0,.3.6.6,0,0,1-.27,0,.53.53,0,0,1-.39-.11.38.38,0,0,1-.08-.22ZM83.9,8.52a.43.43,0,0,1-.12.34.47.47,0,0,1-.33.11H82.9V8.1h.56a.49.49,0,0,1,.33.1.4.4,0,0,1,.12.33m.61,0a.89.89,0,0,0-.26-.71,1,1,0,0,0-.7-.23H82.28v3h.61V9.47h.61a1.13,1.13,0,0,0,.74-.22.92.92,0,0,0,.26-.74m.33-.17V9.67a1.34,1.34,0,0,0,.09.57.65.65,0,0,0,.65.35.89.89,0,0,0,.29,0,.8.8,0,0,0,.26-.16l.08-.09,0-.06v.31h.55V8.35h-.58V9.54a.85.85,0,0,1-.06.34.4.4,0,0,1-.4.24.3.3,0,0,1-.3-.17.69.69,0,0,1,0-.28V8.35Zm1-.89-.38.6h.41l.61-.6Zm2.61.84a.71.71,0,0,0-.39.1.83.83,0,0,0-.24.23v-1h-.57v2.95h.56v-.27a.88.88,0,0,0,.21.22.88.88,0,0,0,1.11-.23,1.4,1.4,0,0,0,.24-.84,1.25,1.25,0,0,0-.24-.8.82.82,0,0,0-.68-.31m-.14,1.82a.43.43,0,0,1-.38-.18.81.81,0,0,1-.13-.46,1,1,0,0,1,.06-.39.43.43,0,0,1,.43-.28.42.42,0,0,1,.42.29,1,1,0,0,1,.06.38.81.81,0,0,1-.12.47.4.4,0,0,1-.35.18m2-2.54h-.57v3h.57Zm1.06,0h-.58v.53h.58Zm-.58,3h.58V8.35h-.58Zm3-1.4a.86.86,0,0,0-.31-.65,1.14,1.14,0,0,0-.67-.18,1,1,0,0,0-.76.31,1.28,1.28,0,0,0-.27.87,1.26,1.26,0,0,0,.25.81.93.93,0,0,0,.78.31.92.92,0,0,0,.79-.37,1,1,0,0,0,.19-.49H93.2a.53.53,0,0,1-.1.28.34.34,0,0,1-.29.11.38.38,0,0,1-.38-.27,1.08,1.08,0,0,1-.06-.38,1.19,1.19,0,0,1,.06-.4.39.39,0,0,1,.4-.29.35.35,0,0,1,.3.13.52.52,0,0,1,.08.22Zm1.58.55a.46.46,0,0,1-.16.39.59.59,0,0,1-.34.11.31.31,0,0,1-.2-.06.25.25,0,0,1-.08-.21.26.26,0,0,1,.13-.24A.85.85,0,0,1,95,9.59l.13,0,.15,0,.11-.06Zm-.54-.45a1.38,1.38,0,0,0-.5.14A.62.62,0,0,0,94,10a.6.6,0,0,0,.19.48.72.72,0,0,0,.49.17.83.83,0,0,0,.42-.11,1.2,1.2,0,0,0,.27-.22s0,.09,0,.13a.62.62,0,0,0,0,.12h.62v-.08a.2.2,0,0,1-.08-.07.32.32,0,0,1,0-.15q0-.15,0-.25V9a.54.54,0,0,0-.28-.54A1.39,1.39,0,0,0,95,8.3a.94.94,0,0,0-.78.29.83.83,0,0,0-.16.47h.55a.41.41,0,0,1,.08-.2.37.37,0,0,1,.29-.1.6.6,0,0,1,.28.05.19.19,0,0,1,.09.19.17.17,0,0,1-.12.16.9.9,0,0,1-.23.05Zm1.43.61a.71.71,0,0,0,.25.55,1.45,1.45,0,0,0,1.51,0,.66.66,0,0,0,.24-.53.55.55,0,0,0-.17-.41,1.09,1.09,0,0,0-.51-.24,3.76,3.76,0,0,1-.6-.16.15.15,0,0,1-.08-.14A.17.17,0,0,1,97,8.79a.46.46,0,0,1,.27-.06.39.39,0,0,1,.32.12.34.34,0,0,1,.06.17h.57a.7.7,0,0,0-.3-.56,1.23,1.23,0,0,0-.67-.16,1,1,0,0,0-.67.22.68.68,0,0,0-.24.52.5.5,0,0,0,.15.39,1.23,1.23,0,0,0,.52.23,3.24,3.24,0,0,1,.6.17.17.17,0,0,1,0,.3.61.61,0,0,1-.27,0,.53.53,0,0,1-.4-.11.38.38,0,0,1-.08-.22Z"/><path class="cls-1" d="M17.51,10.54H19.6V10H18.13V7.59h-.62Zm3.68-.85a.46.46,0,0,1-.16.39.6.6,0,0,1-.34.11.31.31,0,0,1-.2-.06.25.25,0,0,1-.08-.21.26.26,0,0,1,.13-.24.86.86,0,0,1,.26-.08l.13,0,.15,0,.11-.06Zm-.54-.45a1.39,1.39,0,0,0-.5.14.62.62,0,0,0-.31.58.6.6,0,0,0,.19.48.72.72,0,0,0,.49.17.83.83,0,0,0,.42-.11,1.17,1.17,0,0,0,.27-.22s0,.09,0,.13a.62.62,0,0,0,0,.12h.62v-.08a.21.21,0,0,1-.09-.07.33.33,0,0,1,0-.15c0-.1,0-.18,0-.25V9a.54.54,0,0,0-.28-.54,1.39,1.39,0,0,0-.64-.14.94.94,0,0,0-.78.29.84.84,0,0,0-.16.47h.55a.42.42,0,0,1,.08-.2.37.37,0,0,1,.29-.1.6.6,0,0,1,.28.05.19.19,0,0,1,.09.19.17.17,0,0,1-.12.16l-.23.05Zm2.76-.93a.72.72,0,0,0-.39.1.83.83,0,0,0-.24.23v-1H22.2v2.95h.56v-.27a.87.87,0,0,0,.21.22.88.88,0,0,0,1.11-.23,1.41,1.41,0,0,0,.24-.84,1.25,1.25,0,0,0-.24-.8.82.82,0,0,0-.68-.31m-.14,1.82a.43.43,0,0,1-.38-.18.81.81,0,0,1-.13-.46,1,1,0,0,1,.06-.39.43.43,0,0,1,.43-.28.42.42,0,0,1,.42.29,1,1,0,0,1,.06.38.81.81,0,0,1-.12.47.4.4,0,0,1-.35.18m2.42,0a.46.46,0,0,1-.39-.18.82.82,0,0,1-.13-.51.82.82,0,0,1,.13-.5.51.51,0,0,1,.77,0,.82.82,0,0,1,.13.5.82.82,0,0,1-.13.51.45.45,0,0,1-.38.18m1.12-.68a1.27,1.27,0,0,0-.28-.82,1.19,1.19,0,0,0-1.68,0,1.35,1.35,0,0,0,0,1.64,1.2,1.2,0,0,0,1.68,0,1.26,1.26,0,0,0,.28-.82M28.34,8.3a.63.63,0,0,0-.42.13,1.22,1.22,0,0,0-.23.3V8.35h-.54v2.18h.57v-1a.87.87,0,0,1,.07-.39.47.47,0,0,1,.46-.22h.16V8.31h-.08m1.58,1.39a.46.46,0,0,1-.16.39.6.6,0,0,1-.34.11.31.31,0,0,1-.2-.06.25.25,0,0,1-.08-.21.26.26,0,0,1,.14-.24.85.85,0,0,1,.26-.08l.13,0,.15,0,.11-.06Zm-.54-.45a1.39,1.39,0,0,0-.5.14.62.62,0,0,0-.31.58.6.6,0,0,0,.19.48.73.73,0,0,0,.49.17.82.82,0,0,0,.42-.11,1.17,1.17,0,0,0,.27-.22s0,.09,0,.13a.63.63,0,0,0,0,.12h.62v-.08a.2.2,0,0,1-.08-.07.32.32,0,0,1,0-.15c0-.1,0-.18,0-.25V9a.54.54,0,0,0-.28-.54,1.39,1.39,0,0,0-.64-.14.94.94,0,0,0-.78.29.84.84,0,0,0-.16.47h.55a.41.41,0,0,1,.08-.2.36.36,0,0,1,.29-.1.6.6,0,0,1,.28.05.19.19,0,0,1,.09.19.17.17,0,0,1-.12.16l-.23.05ZM31,8.78v1.34a.42.42,0,0,0,.1.3.72.72,0,0,0,.55.14h.27v-.43h-.11a.37.37,0,0,1-.21,0,.26.26,0,0,1,0-.17V8.78h.35V8.37h-.35V7.77H31v.61h-.3v.41Zm2.18,1.35a.45.45,0,0,1-.39-.18.82.82,0,0,1-.14-.51.81.81,0,0,1,.14-.5.51.51,0,0,1,.77,0,.82.82,0,0,1,.13.5.83.83,0,0,1-.13.51.45.45,0,0,1-.38.18m1.12-.68A1.27,1.27,0,0,0,34,8.63a1.19,1.19,0,0,0-1.68,0,1.35,1.35,0,0,0,0,1.64,1.2,1.2,0,0,0,1.68,0,1.26,1.26,0,0,0,.28-.82M35.86,8.3a.63.63,0,0,0-.42.13,1.22,1.22,0,0,0-.23.3V8.35h-.54v2.18h.57v-1a.87.87,0,0,1,.07-.39.47.47,0,0,1,.46-.22h.16V8.31h-.08m.92-.73H36.2v.53h.58Zm-.58,3h.58V8.35H36.2Zm2.06-.4a.46.46,0,0,1-.39-.18.82.82,0,0,1-.13-.51.82.82,0,0,1,.13-.5.51.51,0,0,1,.77,0,.82.82,0,0,1,.13.5.83.83,0,0,1-.13.51.45.45,0,0,1-.38.18m1.12-.68a1.27,1.27,0,0,0-.28-.82,1.19,1.19,0,0,0-1.68,0,1.35,1.35,0,0,0,0,1.64,1.2,1.2,0,0,0,1.68,0,1.27,1.27,0,0,0,.28-.82M41,10.54h.57V8.44l1.2,2.09h.62v-3h-.57V9.64L41.6,7.59H41Zm4.14-.85a.46.46,0,0,1-.16.39.6.6,0,0,1-.34.11.31.31,0,0,1-.2-.06.25.25,0,0,1-.08-.21.26.26,0,0,1,.13-.24.86.86,0,0,1,.26-.08l.13,0,.15,0,.11-.06Zm-.54-.45a1.4,1.4,0,0,0-.5.14.62.62,0,0,0-.31.58.6.6,0,0,0,.19.48.73.73,0,0,0,.49.17.83.83,0,0,0,.42-.11,1.17,1.17,0,0,0,.27-.22,1.32,1.32,0,0,0,0,.13.59.59,0,0,0,0,.12h.62v-.08a.2.2,0,0,1-.08-.07.31.31,0,0,1,0-.15q0-.15,0-.25V9a.55.55,0,0,0-.28-.54,1.39,1.39,0,0,0-.64-.14.94.94,0,0,0-.78.29.83.83,0,0,0-.16.47h.55a.41.41,0,0,1,.08-.2.36.36,0,0,1,.29-.1.6.6,0,0,1,.28.05.19.19,0,0,1,.09.19.17.17,0,0,1-.12.16l-.23.05ZM48,9.14a.86.86,0,0,0-.31-.65A1.14,1.14,0,0,0,47,8.3a1,1,0,0,0-.76.31,1.28,1.28,0,0,0-.27.87,1.26,1.26,0,0,0,.25.81.93.93,0,0,0,.77.31.92.92,0,0,0,.8-.37A1,1,0,0,0,48,9.74h-.58a.54.54,0,0,1-.1.28.34.34,0,0,1-.28.11.38.38,0,0,1-.39-.27,1.09,1.09,0,0,1-.06-.39,1.18,1.18,0,0,1,.06-.4.39.39,0,0,1,.4-.29.34.34,0,0,1,.3.13.51.51,0,0,1,.08.22Zm.93-1.57h-.58v.53h.58Zm-.58,3h.58V8.35h-.58Zm2.06-.4A.46.46,0,0,1,50,10a.82.82,0,0,1-.13-.51.82.82,0,0,1,.13-.5.46.46,0,0,1,.39-.18.45.45,0,0,1,.38.18.81.81,0,0,1,.14.5.82.82,0,0,1-.14.51.45.45,0,0,1-.38.18m1.12-.68a1.27,1.27,0,0,0-.28-.82,1.19,1.19,0,0,0-1.68,0,1.35,1.35,0,0,0,0,1.64,1.2,1.2,0,0,0,1.68,0,1.26,1.26,0,0,0,.28-.82M53.09,8.3a.72.72,0,0,0-.44.13,1,1,0,0,0-.21.24V8.36h-.55v2.18h.57V9.35A.84.84,0,0,1,52.51,9a.39.39,0,0,1,.4-.25.32.32,0,0,1,.32.17.62.62,0,0,1,0,.26v1.33h.58V9.07a.72.72,0,0,0-.21-.59.84.84,0,0,0-.55-.18m2.47,1.39a.46.46,0,0,1-.16.39.6.6,0,0,1-.34.11.31.31,0,0,1-.2-.06.25.25,0,0,1-.08-.21.26.26,0,0,1,.14-.24.85.85,0,0,1,.26-.08l.13,0,.15,0,.11-.06ZM55,9.23a1.39,1.39,0,0,0-.5.14.62.62,0,0,0-.31.58.6.6,0,0,0,.19.48.73.73,0,0,0,.49.17.82.82,0,0,0,.42-.11,1.19,1.19,0,0,0,.27-.22,1.12,1.12,0,0,0,0,.13.69.69,0,0,0,0,.12h.62v-.08a.21.21,0,0,1-.08-.07.33.33,0,0,1,0-.15c0-.1,0-.18,0-.25V9a.54.54,0,0,0-.28-.54,1.39,1.39,0,0,0-.64-.14.94.94,0,0,0-.78.29.84.84,0,0,0-.16.47h.55a.42.42,0,0,1,.08-.2.36.36,0,0,1,.29-.1.6.6,0,0,1,.28.05.19.19,0,0,1,.09.19.17.17,0,0,1-.12.16l-.23.05Zm2.15-1.65H56.6v3h.57Z"/></g></g></svg>